<?xml version="1.0" encoding="utf-8"?>
<!-- Generator: Adobe Illustrator 16.0.0, SVG Export Plug-In . SVG Version: 6.00 Build 0)  -->
<!DOCTYPE svg PUBLIC "-//W3C//DTD SVG 1.1//EN" "http://www.w3.org/Graphics/SVG/1.1/DTD/svg11.dtd">
<svg version="1.1" id="Layer_1" xmlns="http://www.w3.org/2000/svg" xmlns:xlink="http://www.w3.org/1999/xlink" x="0px" y="0px"
	 width="128px" height="128px" viewBox="0 0 128 128" enable-background="new 0 0 128 128" xml:space="preserve">
<g>
	<g>
		<g>
			<path fill="#282D33" d="M35.549,100.507c-6.953,0-13.652-1.984-19.591-5.814l-0.238-0.165c-4.428-3.216-6.887-8.182-6.6-13.3
				c0.021-0.373,0.06-0.749,0.12-1.137c-2.559-1.111-4.757-3.188-6.085-5.819c-2.271-4.946-3.341-10.54-3.128-16.244l0.022-0.316
				c0.359-3.727,2.032-6.735,4.714-8.512c2.551-1.685,5.739-1.996,8.749-0.852c3.263,1.214,7.24,1.992,11.184,2.186
				c2.963,0.065,5.004,1.122,6.292,2.143c2.171-1.195,4.149-1.385,5.607-1.265c0.821-2.564,2.295-4.702,4.33-6.255
				c1.173-0.899,2.492-1.574,3.94-2.015c-0.095-0.639-0.125-1.277-0.091-1.9c0.061-1.097,0.34-2.682,1.251-4.479
				c-1.327-1.757-2.082-4.087-2.158-6.726c-0.207-4.056-0.979-8.228-2.172-11.701c-0.498-1.404-0.711-2.865-0.628-4.325
				c0.282-5.139,4.109-9.003,9.522-9.612l0.292-0.025c5.535-0.268,10.871,0.797,15.491,3.081c2.685,1.473,4.705,3.742,5.787,6.414
				c0.888-0.134,1.784-0.172,2.682-0.109c4.366,0.298,8.424,2.791,11.131,6.839l0.158,0.256c4.113,6.918,6.042,14.861,5.588,22.986
				l-0.093,1.202c-0.416,3.215-1.664,6.157-3.567,8.471c2.236,2.85,3.365,6.69,3.134,10.832c-0.159,2.893-0.949,5.833-2.35,8.734
				l-3.602-1.738c1.169-2.423,1.827-4.852,1.957-7.217c0.208-3.725-0.968-7.064-3.228-9.166l-1.581-1.471l1.588-1.464
				c1.975-1.821,3.278-4.462,3.675-7.443l0.075-1.001c0.407-7.29-1.329-14.448-5.024-20.664l-0.102-0.166
				c-1.967-2.938-4.912-4.787-8.033-5c-1.063-0.07-2.118,0.059-3.146,0.39l-2.091,0.673l-0.476-2.145
				c-0.526-2.378-2.105-4.444-4.332-5.667c-3.934-1.944-8.587-2.87-13.381-2.636l-0.165,0.015c-3.396,0.383-5.741,2.684-5.916,5.855
				c-0.053,0.929,0.085,1.864,0.411,2.783c1.317,3.835,2.165,8.396,2.392,12.859c0.065,2.251,0.761,4.061,1.96,5.139l1.282,1.153
				l-0.951,1.438c-1.06,1.602-1.339,2.981-1.387,3.856c-0.044,0.792,0.101,1.644,0.417,2.465l0.911,2.358l-2.505,0.343
				c-1.627,0.223-3.052,0.796-4.236,1.705c-1.735,1.324-2.879,3.317-3.313,5.769l-0.404,2.286l-2.201-0.737
				c-0.145-0.049-0.292-0.1-0.418-0.132c-1.139-0.283-2.958-0.287-5.099,1.305l-1.596,1.188l-1.264-1.684
				c-0.765-0.828-2.13-1.746-4.508-1.798c-4.396-0.215-8.798-1.081-12.448-2.438c-1.807-0.686-3.672-0.522-5.134,0.444
				c-1.655,1.097-2.699,3.057-2.936,5.518L4.02,58.252c-0.186,5.006,0.76,9.972,2.738,14.284c1.085,2.147,3.07,3.774,5.278,4.285
				l2.053,0.475l-0.582,2.025c-0.234,0.814-0.359,1.49-0.393,2.126c-0.211,3.759,1.634,7.431,4.934,9.827l0.146,0.103
				c6.073,3.914,13.122,5.651,20.322,4.997l0.138-0.019c2.522-0.374,4.873-1.571,6.57-3.364l1.526-1.612l1.445,1.686
				c0.713,0.832,1.539,1.513,2.456,2.023c0.859,0.478,1.794,0.826,2.776,1.035l-0.831,3.912c-1.372-0.291-2.681-0.779-3.891-1.452
				c-0.742-0.413-1.44-0.9-2.089-1.456c-2.101,1.671-4.675,2.785-7.426,3.192l-0.248,0.031
				C37.807,100.455,36.675,100.507,35.549,100.507z"/>
		</g>
		<g>
			
				<rect x="47.463" y="47.218" transform="matrix(0.9718 0.236 -0.236 0.9718 13.4861 -14.2596)" fill="#282D33" width="37.718" height="4"/>
		</g>
		<g>
			
				<rect x="20.725" y="71.884" transform="matrix(0.1787 0.9839 -0.9839 0.1787 107.3411 19.1812)" fill="#282D33" width="42.914" height="4"/>
		</g>
		<g>
			
				<rect x="19.44" y="51.659" transform="matrix(0.791 0.6118 -0.6118 0.791 45.4785 0.8874)" fill="#282D33" width="4" height="30.703"/>
		</g>
		<g>
			
				<rect x="57.803" y="11.267" transform="matrix(0.6675 0.7446 -0.7446 0.6675 39.4143 -35.8101)" fill="#282D33" width="4" height="29.919"/>
		</g>
		<g>
			
				<rect x="71.346" y="39.556" transform="matrix(0.1806 0.9835 -0.9835 0.1806 100.7611 -38.2642)" fill="#282D33" width="4" height="3.576"/>
		</g>
		<g>
			
				<rect x="25.123" y="84.568" transform="matrix(0.1812 0.9835 -0.9835 0.1812 107.1341 44.0361)" fill="#282D33" width="4" height="3.572"/>
		</g>
		<g>
			
				<rect x="67.886" y="59.75" transform="matrix(0.1802 0.9836 -0.9836 0.1802 117.8291 -18.289)" fill="#282D33" width="4" height="3.583"/>
		</g>
		<g>
			
				<rect x="78.443" y="61.758" transform="matrix(0.1802 0.9836 -0.9836 0.1802 128.4542 -27.0294)" fill="#282D33" width="3.999" height="3.581"/>
		</g>
		<g>
			
				<rect x="33.617" y="88.544" transform="matrix(0.1807 0.9835 -0.9835 0.1807 118.0237 38.9777)" fill="#282D33" width="3.999" height="3.572"/>
		</g>
		<g>
			
				<rect x="80.898" y="40.465" transform="matrix(0.1806 0.9835 -0.9835 0.1806 109.4816 -46.9139)" fill="#282D33" width="4" height="3.578"/>
		</g>
		<g>
			
				<rect x="79.595" y="28.334" transform="matrix(0.1807 0.9835 -0.9835 0.1807 96.476 -55.5738)" fill="#282D33" width="3.999" height="3.573"/>
		</g>
	</g>
	<g>
		<g>
			<path fill="#282D33" d="M116.922,98.506v-4c3.903,0,7.078-3.197,7.078-7.127c0-3.931-3.175-7.129-7.078-7.129v-4
				c6.108,0,11.078,4.992,11.078,11.129C128,93.515,123.03,98.506,116.922,98.506z"/>
		</g>
		<g>
			<path fill="#282D33" d="M92.313,114.623H70.787c-11.278,0-20.454-9.223-20.454-20.559V68.87h62.435v25.194
				C112.768,105.4,103.592,114.623,92.313,114.623z M86.57,110.623h5.742c9.073,0,16.455-7.428,16.455-16.559V72.87H54.333v21.194
				c0,9.131,7.381,16.559,16.454,16.559H86.57z"/>
		</g>
		<g>
			<rect x="98.783" y="71.029" fill="#282D33" width="4" height="21.705"/>
		</g>
		<g>
			<rect x="98.787" y="95.53" fill="#282D33" width="4" height="3.585"/>
		</g>
		<g>
			<path fill="#282D33" d="M97.371,123.667H65.729c-5.034,0-9.784-0.326-13.376-0.918c-3.676-0.606-7.079-1.524-7.079-4.121v-8.097
				h72.552v8.097c0,2.596-3.403,3.515-7.081,4.121C107.152,123.341,102.402,123.667,97.371,123.667z M49.274,117.886
				c1.632,0.715,7.295,1.781,16.455,1.781h31.643c9.159,0,14.822-1.066,16.455-1.781v-3.354H49.274V117.886z"/>
		</g>
	</g>
</g>
</svg>
