<?xml version="1.0" encoding="iso-8859-1"?>
<!-- Generator: Adobe Illustrator 21.0.2, SVG Export Plug-In . SVG Version: 6.00 Build 0)  -->
<svg version="1.1" xmlns="http://www.w3.org/2000/svg" xmlns:xlink="http://www.w3.org/1999/xlink" x="0px" y="0px"
	 viewBox="0 0 64 64" style="enable-background:new 0 0 64 64;" xml:space="preserve">
<g id="_x32_5_vegetables">
</g>
<g id="_x32_4_cupcake">
</g>
<g id="_x32_3_chef">
</g>
<g id="_x32_2_grinder">
</g>
<g id="_x32_1_kettle">
</g>
<g id="_x32_0_pouring_water">
</g>
<g id="_x31_9_rolling_pin">
</g>
<g id="_x31_8_mixing">
</g>
<g id="_x31_7_apron">
</g>
<g id="_x31_6_lemon_squeezer">
</g>
<g id="_x31_5_hot_pot">
</g>
<g id="_x31_4_blender">
</g>
<g id="_x31_3_oven">
</g>
<g id="_x31_2_online_recipe">
</g>
<g id="_x31_1_noodle">
</g>
<g id="_x31_0_grilling_meat">
</g>
<g id="_x30_9_chicken">
</g>
<g id="_x30_8_scale">
</g>
<g id="_x30_7_mixer">
</g>
<g id="_x30_6_rice">
</g>
<g id="_x30_5_cutting_board">
</g>
<g id="_x30_4_toast">
</g>
<g id="_x30_3_pour_seasoning">
</g>
<g id="_x30_2_pot">
</g>
<g id="_x30_1_food_serving">
	<path d="M61.1011,40.5122h-0.4116c-0.4684-12.9602-9.9824-23.647-22.4038-25.9282v-3.588c0-2.7319-2.2227-4.9546-4.9546-4.9546
		c-2.7305,0-4.9517,2.2227-4.9517,4.9546v3.5793C16.2717,16.7669,6.959,26.8545,6.0332,39.4648H3.0337
		C1.9121,39.4648,1,40.377,1,41.4985v13.752c0,1.1216,0.9121,2.0337,2.0337,2.0337h8.3486c0.962,0,1.7654-0.6727,1.9758-1.5714
		l15.0066,2.0704c0.8789,0.1211,1.7754,0.1777,2.6826,0.1777c8.8929,0,18.7117-5.4554,21.5824-9.1499h8.2399
		c1.0078,0,2.1304-0.75,2.1304-1.8262v-4.6567C63,41.3267,62.1479,40.5122,61.1011,40.5122z M30.3794,10.9961
		c0-1.6294,1.3242-2.9546,2.9517-2.9546c1.6294,0,2.9546,1.3252,2.9546,2.9546v3.2943c-0.9711-0.1047-1.956-0.1629-2.9546-0.1629
		c-0.9979,0-1.9816,0.0579-2.9517,0.1608V10.9961z M11.3823,55.2842L3,55.2505v-13.752c0-0.0181,0.0156-0.0337,0.0337-0.0337
		l8.3823,0.0337L11.3823,55.2842z M11.3823,39.4648H8.0363c1.0424-13.1679,11.9565-23.3374,25.2948-23.3374
		c13.6613,0,24.8307,10.85,25.3584,24.3848H32.855c-0.8724-0.3526-1.6101-0.6619-2.2383-0.9253
		c-4.0229-1.689-4.2759-1.7031-8.9937-0.5024l-8.2432,2.0559C13.2097,40.1897,12.3813,39.4648,11.3823,39.4648z M28.6382,55.8018
		L13.416,53.7016V43.1921l8.7002-2.1697c4.2065-1.0698,4.2065-1.0688,7.7266,0.4082c0.6792,0.2852,1.4785,0.6211,2.3647,0.9731
		c1.2314,0.625,1.7729,1.541,1.5244,2.5796c-0.2495,1.042-1.2124,1.8276-2.2402,1.8276h-5.6899c-0.5522,0-1,0.4478-1,1s0.4478,1,1,1
		h24.1108C46.0029,52.3641,36.4146,56.8814,28.6382,55.8018z M61,46.7725c-0.0459,0.0215-0.0981,0.0381-0.1304,0.0386H35.0905
		c0.2663-0.4106,0.4686-0.8688,0.5867-1.3623c0.2112-0.8824,0.1207-1.9469-0.4728-2.9365H61V46.7725z"/>
</g>
</svg>
